<svg id="Capa_1" enable-background="new 0 0 512 512" height="512" viewBox="0 0 512 512" width="512" xmlns="http://www.w3.org/2000/svg"><g><g clip-rule="evenodd" fill-rule="evenodd"><path d="m136.822 155.343c27.267-10.175 53.076-11.945 73.008-11.945 16.918 0 30.97 8.645 46.17 8.645s29.253-8.645 46.17-8.645c49.043 0 151.017 13.09 151.017 135.979s-53.672 222.511-119.88 222.511c-29.462 0-38.493-31.594-77.308-31.594s-47.846 31.594-77.308 31.594c-66.208 0-119.88-99.622-119.88-222.511 0-26.584 4.772-48.03 12.748-65.317.002 0 22.938-42.923 65.263-58.717z" fill="#ff7d97"/><path d="m348.199 114.838c-33.002 31.412-86.125 29.172-86.125 29.172s.383-53.169 33.385-84.581 86.125-29.172 86.125-29.172-.383 53.169-33.385 84.581z" fill="#d0f2d2"/><path d="m313.302 143.93c57.302-33.707 57.815-63.963 57.815-63.963 30.923-.03 57.215 12.398 57.215 12.398s-18.657 43.3-56.426 61.796c-23.642-9.995-58.604-10.231-58.604-10.231z" fill="#a0e5a5"/></g><g><path d="m401.204 156.592c-2.434-1.434-4.966-2.783-7.545-4.09 28.997-22.027 43.264-54.521 43.959-56.136 2.156-5.004-.039-10.815-4.965-13.144-.988-.467-21.229-9.896-47.551-12.627 6.327-21.284 6.583-38.964 6.593-40.266.039-5.447-4.243-9.947-9.686-10.176-2.343-.098-57.822-2.03-93.523 31.951-9.579 9.117-16.643 19.784-21.857 30.558-3.002-17.918-9.211-36.376-21.098-51.375-15.56-19.633-38.103-30.158-67.004-31.28-5.582-.215-10.281 4.132-10.497 9.712-.217 5.581 4.132 10.281 9.712 10.497 23.034.894 40.013 8.611 51.905 23.589 23.461 29.551 19.779 78.958 17.461 97.04-3.285-.704-6.668-1.671-10.154-2.672-7.976-2.292-17.016-4.889-27.126-4.889-22.31 0-48.878 1.505-76.765 12.669-5.185 2.076-7.706 7.961-5.63 13.146 2.075 5.185 7.963 7.704 13.146 5.63 24.699-9.888 48.866-11.221 69.249-11.221 7.261 0 14.198 1.993 21.541 4.103 7.772 2.233 15.809 4.542 24.63 4.542s16.857-2.309 24.63-4.542c7.343-2.11 14.28-4.103 21.541-4.103 24.618 0 60.002 3.558 88.766 20.506 34.597 20.385 52.139 55.834 52.139 105.361 0 57.79-12.04 111.964-33.902 152.543-20.796 38.599-47.739 59.856-75.866 59.856-10.392 0-17.691-5.382-26.932-12.195-11.721-8.643-26.308-19.399-50.376-19.399s-38.655 10.756-50.376 19.399c-9.241 6.813-16.539 12.195-26.932 12.195-28.127 0-55.07-21.257-75.866-59.856-21.862-40.579-33.902-94.753-33.902-152.543 0-23.535 3.976-44.085 11.818-61.08 2.34-5.071.126-11.078-4.945-13.418-5.069-2.34-11.078-.126-13.418 4.945-9.076 19.672-13.678 43.073-13.678 69.555 0 61.08 12.899 118.66 36.322 162.135 24.489 45.455 57.755 70.488 93.67 70.488 17.042 0 28.673-8.576 38.934-16.142 10.777-7.947 20.956-15.452 38.374-15.452s27.597 7.506 38.374 15.452c10.261 7.566 21.892 16.142 38.934 16.142 35.915 0 69.181-25.033 93.67-70.488 23.422-43.475 36.322-101.056 36.322-162.135 0-57.196-20.893-98.507-62.096-122.785zm13.014-58.884c-6.966 12.214-21.446 33.456-43.252 45.532-10.511-3.387-21.799-5.95-33.764-7.615 6.287-3.707 12.373-8.136 17.969-13.463 9.973-9.493 17.221-20.666 22.492-31.89 14.779.871 28.043 4.527 36.555 7.436zm-111.787-30.955c21.075-20.06 52.147-24.932 68.229-26.076-1.04 8.718-3.412 21.817-8.782 35.193-.076.171-.143.345-.21.521-4.469 10.978-10.969 22.107-20.44 31.122-21.075 20.06-52.148 24.932-68.229 26.076 1.906-15.983 8.266-46.69 29.432-66.836z"/><circle cx="98.25" cy="177.975" r="10"/></g></g></svg>