<svg id="Capa_1" enable-background="new 0 0 512 512" height="512" viewBox="0 0 512 512" width="512" xmlns="http://www.w3.org/2000/svg"><g><g><path d="m49.856 229.601v-175.007h223.423v55.852 119.154z" fill="#9d9ae8"/><path clip-rule="evenodd" d="m335.817 234.807 16.643-76.823 51.443-51.947 10.087-27.739 52.451 18.661-8.574 23.2 10.087 76.659-13.617 39.339z" fill="#ccf5fc" fill-rule="evenodd"/><path d="m278.322 233.131-39.338-110.955 71.112-20.678 23.704 131.128z" fill="#ff7d97"/><g clip-rule="evenodd" fill-rule="evenodd"><path d="m426.028 32.065h39.931v74.624h-39.931z" fill="#fff2a0" transform="matrix(.315 -.949 .949 .315 239.889 470.929)"/><path d="m287.408 284.095h182.175l-39.545 167.735c-2.968 12.615-13.675 21.466-25.965 21.466h-296.145c-12.29 0-22.997-8.851-25.965-21.466l-39.546-167.735h202.373" fill="#d0f2d2"/><path d="m477.269 234.807c13.612 0 24.644 11.032 24.644 24.644 0 6.806-2.758 12.962-7.215 17.429-4.467 4.457-10.623 7.215-17.429 7.215h-442.538c-13.612 0-24.644-11.032-24.644-24.644 0-6.806 2.758-12.962 7.215-17.429 4.467-4.457 10.623-7.215 17.429-7.215z" fill="#ffa96b"/><path d="m280.465 292.95-1.754 1.228c-9.953 6.969-23.671 4.55-30.64-5.403l-111.45-159.168c-6.969-9.953-4.55-23.671 5.403-30.64l1.754-1.228c9.953-6.969 23.671-4.55 30.64 5.403l111.45 159.168c6.969 9.953 4.55 23.671-5.403 30.64z" fill="#a0e5a5"/></g></g><g><path d="m256 341.119c-5.57 0-10.087 4.516-10.087 10.087v79.699c0 5.57 4.516 10.087 10.087 10.087s10.087-4.516 10.087-10.087v-79.699c0-5.57-4.517-10.087-10.087-10.087z"/><path d="m136.538 352.627c-7.449-10.641-23.998.9-16.525 11.57l45.714 65.285c7.464 10.664 23.979-.926 16.525-11.57z"/><path d="m389.509 350.15c-4.56-3.194-10.852-2.086-14.048 2.477l-45.714 65.285c-7.438 10.62 9.042 22.258 16.525 11.57l45.714-65.285c3.196-4.562 2.087-10.851-2.477-14.047z"/><path d="m512 259.451c0-19.15-15.58-34.731-34.731-34.731h-8.436l7.788-23.508c.474-1.432.622-2.953.43-4.449l-9.551-74.803 4.12-12.435c5.443 1.396 11.186-.545 13.09-6.29l12.556-37.905c1.751-5.288-1.115-10.995-6.404-12.746l-70.837-23.467c-5.214-1.731-11.023 1.202-12.747 6.403l-12.558 37.905c-1.844 5.567 1.499 10.895 6.745 12.861l-4.119 12.435-52.321 54.306c-1.249 1.296-2.129 2.904-2.547 4.654l-7.095 29.688-15.353-87.613c-1.011-5.772-6.985-9.562-12.646-7.975l-24.019 6.701v-43.888c0-5.57-4.516-10.087-10.087-10.087h-223.422c-5.57 0-10.087 4.516-10.087 10.087v170.126s-19.548-1.257-29.607 10.177c-6.128 6.966-10.162 15.288-10.162 24.554 0 18.655 14.786 33.916 33.253 34.693l38.891 159.994c4.049 17.219 18.764 29.245 35.784 29.245h296.144c17.02 0 31.734-12.026 35.763-29.157l39.156-160.086c8.62-.418 16.672-3.975 22.847-10.135 6.553-6.568 10.162-15.288 10.162-24.554zm-88.744-208.013 51.688 17.122-6.214 18.755-51.687-17.122zm-101.808 173.282h-35.742l-35.787-95.962 52.164-14.553zm-176.455-100.741c-9.149-13.069 12.091-28 21.272-14.895l111.232 158.854c7.881 10.371-4.414 17.868-4.414 17.868-5.468 3.828-13.031 2.494-16.858-2.972zm-85.05-59.298h203.249v39.431l-29.272 8.167c-5.597 1.561-8.774 7.782-6.741 13.24l28.237 75.716-72.626-103.721c-11.204-16.003-32.972-17.536-47.813-5.861-13.277 10.445-16.209 30.042-6.509 43.896l62.438 89.171h-130.963zm-39.769 194.77c0-7.928 6.627-14.557 14.557-14.557h170.301l20.386 29.114h-190.687c-8.028 0-14.557-6.53-14.557-14.557zm400.044 190.069c-1.895 8.06-8.535 13.689-16.146 13.689h-296.144c-7.61 0-14.251-5.629-16.164-13.763l-37.741-155.265h185.519c10.074 14.511 30.576 18.324 45.113 8.149 0 0 6.779-5.436 8.814-8.161.078.002 164.742.012 164.742.012zm67.356-179.782c-2.759 2.753-6.419 4.269-10.305 4.269h-177.415c-.29-11.569-7.57-20.12-13.868-29.114h62.691c5.57 0 10.192-4.517 10.087-10.087-.194-10.271-11.564-10.086-11.564-10.086l14.26-59.676 52.004-53.977c1.047-1.087 1.837-2.395 2.312-3.827l4.84-14.611 31.852 10.551-4.84 14.611c-.474 1.432-.622 2.953-.43 4.449l9.553 74.803-9.117 27.676c-4.906 0-11.019-1.011-15.016 2.457-7.091 6.154-2.414 17.381 6.588 17.716 8.864.33 17.802 0 26.671 0h11.392c12.665.002 19.305 15.827 10.305 24.846z"/><circle cx="393.902" cy="234.421" r="10"/></g></g></svg>