<svg id="Capa_1" enable-background="new 0 0 512 512" height="512" viewBox="0 0 512 512" width="512" xmlns="http://www.w3.org/2000/svg"><g><g><path d="m374.201 355.725c-34.839 4.179-75.769 5.805-118.201 5.805-135.805 0-245.9-15.303-245.9-84.957 0-42.89 41.75-80.778 105.537-103.563 19.873-7.092 41.877-12.728 65.433-16.59 12.939-2.121 26.342-3.704 40.104-4.707 11.377-.823 23.007-1.256 34.827-1.256 10.364 0 20.58.327 30.606.971 13.751.876 27.155 2.332 40.104 4.327 23.482 3.609 45.486 8.971 65.433 15.778 66.159 22.605 109.756 61.21 109.756 105.039 0 24.01-13.082 41.562-35.789 54.255" fill="#ffa96b"/></g><g fill="#ffd4b5"><path d="m123.836 223.359c0 15.218 11.089 27.6 24.718 27.6s24.717-12.381 24.717-27.6v-68.125c-16.724 3.623-33.26 8.308-49.434 14.297v53.828z"/><path d="m229.172 146.336v77.024c0 15.218 11.089 27.6 24.718 27.6s24.717-12.381 24.717-27.6v-77.272c-16.472-.796-32.972-.708-49.435.248z"/><path d="m334.507 223.359c0 15.218 11.089 27.6 24.718 27.6s24.717-12.381 24.717-27.6v-55.503c-16.195-5.724-32.728-10.176-49.434-13.588v69.091z"/></g><g><path d="m395.404 161.974c-2.6-.887-5.227-1.749-7.882-2.584-17.722-5.578-36.655-9.977-56.406-13.146-.959-.154-1.908-.323-2.871-.471 0 0-.001 0-.002 0-13.316-2.051-27.109-3.54-40.99-4.424-20.173-1.295-41.224-1.302-61.835-.026-1.659.103-3.321.197-4.974.316-.001 0-.002 0-.003 0h-.002c-13.906 1.013-27.703 2.632-41.004 4.813-2.982.489-5.944 1.006-8.886 1.552-3.766.698-7.484 1.46-11.179 2.25-16.511 3.531-32.306 7.953-47.128 13.242-.004.001-.008.003-.012.005-33.225 11.869-60.984 27.937-80.277 46.465-20.904 20.077-31.953 43.108-31.953 66.606 0 37.134 26.709 63.485 79.385 78.32 40.543 11.418 96.663 16.736 176.615 16.736 45.859 0 87.531-2.091 120.512-6.048 5.538-.664 9.489-5.692 8.824-11.23-.665-5.539-5.694-9.491-11.23-8.824-32.196 3.862-73.036 5.904-118.105 5.904-78.048 0-132.429-5.078-171.139-15.98-64.663-18.211-64.663-48.819-64.663-58.878 0-34.024 31.626-66.648 85.338-88.848v36.607c0 23.608 19.207 42.816 42.816 42.816 23.608 0 42.815-19.207 42.815-42.816v-59.233c6.55-.937 13.198-1.735 19.905-2.386v61.619c0 23.608 19.207 42.816 42.816 42.816 23.608 0 42.815-19.207 42.815-42.816v-62.006c6.703.586 13.351 1.32 19.905 2.193v59.814c0 23.608 19.207 42.816 42.816 42.816 23.608 0 42.815-19.207 42.815-42.816v-38.311c25.765 10.191 47.264 22.997 62.687 37.443 17.831 16.703 26.873 34.572 26.873 53.109 0 20.025-10.087 34.6-31.745 45.869-4.948 2.574-6.872 8.672-4.298 13.62s8.672 6.873 13.62 4.298c28.283-14.715 42.623-36.176 42.623-63.788 0-46.812-43.586-89.652-116.596-114.598zm-247.051 84.975c-12.471 0-22.618-10.146-22.618-22.617v-44.11c14.8-4.908 29.931-8.748 45.234-11.716v55.826c0 12.471-10.145 22.617-22.616 22.617zm105.536 0c-12.471 0-22.618-10.146-22.618-22.617v-63.119c15.065-.783 30.163-.855 45.234-.203v63.322c.001 12.471-10.144 22.617-22.616 22.617zm105.537 0c-12.471 0-22.618-10.146-22.618-22.617v-56.618c15.287 2.796 30.415 6.445 45.234 11.135v45.483c.001 12.471-10.145 22.617-22.616 22.617z"/><circle cx="421.165" cy="346.754" r="10"/></g></g></svg>