<svg id="Capa_1" enable-background="new 0 0 512 512" height="512" viewBox="0 0 512 512" width="512" xmlns="http://www.w3.org/2000/svg"><g><g clip-rule="evenodd" fill-rule="evenodd"><path d="m91.694 57.57v36.224l-60.511 112.124v264.061c0 16.71 13.546 30.256 30.256 30.256h157.331c16.71 0 30.256-13.546 30.256-30.256v-264.061l-60.513-112.124v-36.224z" fill="#ccf5fc"/><path d="m72.869 11.094h134.471v41.014h-134.471z" fill="#fff2a0"/><path d="m31.519 471.502v-230.8s63.201-18.826 110.938 12.102 96.819 9.413 107.576-8.741v227.438c0 15.124-12.26 27.384-27.384 27.384h-163.746c-15.124.001-27.384-12.259-27.384-27.383z" fill="#ffa96b"/><path d="m440.982 359.373h41.014s-17.649 142.539-138.505 142.539c-144.57 0-144.556-142.539-144.556-142.539z" fill="#ffa96b"/><path d="m439.637 359.373s-12.367 99.004-97.052 99.004c-101.302 0-101.292-99.004-101.292-99.004" fill="#fff2a0"/></g><g><path d="m481.826 348.952h-223.724v-143.142c0-1.663-.412-3.301-1.198-4.767l-59.314-110.571v-29.288h8.741c5.57 0 10.085-4.515 10.085-10.085v-41.014c0-5.57-4.516-10.085-10.085-10.085h-134.471c-5.57 0-10.085 4.515-10.085 10.085v41.013c0 5.57 4.516 10.085 10.085 10.085h8.741v29.288l-59.315 110.572c-.786 1.466-1.198 3.104-1.198 4.767v107.592c0 5.57 4.516 10.085 10.085 10.085s10.085-4.515 10.085-10.085v-65.11c39.022-10.814 70.298-7.433 90.623 9.845 15.234 12.948 34.81 19.756 55.313 19.755 8.773 0 17.718-1.247 26.564-3.792 9.581-2.757 18.142-6.785 25.173-11.669v86.521h-41.517c-5.57 0-10.085 4.515-10.085 10.085 0 45.428 19.935 86.281 51.509 114.292-.936 10.357-9.577 18.5-20.077 18.5h-157.331c-11.122 0-20.171-9.134-20.171-20.362v-68.057c0-5.57-4.516-10.085-10.085-10.085s-10.085 4.515-10.085 10.085v68.057c0 22.35 18.097 40.533 40.341 40.533h157.331c16.91 0 31.414-10.513 37.402-25.372 24.11 15.918 52.967 25.201 83.957 25.201 84.25 0 152.791-68.542 152.791-152.791 0-5.571-4.516-10.086-10.085-10.086zm-399.881-328.781h114.301v20.843h-114.301zm155.445 213.124c-2.128 6.742-12.491 16.321-30.211 21.42-23.007 6.62-46.643 2.153-63.234-11.949-24.645-20.947-60.354-26.181-103.686-15.329v-19.094l59.315-110.569c.786-1.466 1.198-3.104 1.198-4.767v-31.823h76.648v31.822c0 1.663.412 3.301 1.198 4.767l59.314 110.571v23.616c-.206.429-.394.869-.542 1.335zm83.556 135.828-48.137 52.039c-13.134-14.227-22.18-32.34-25.934-52.039zm8.089 20.96v60.44c-14.604-1.746-28.694-7.241-41.082-16.028zm20.17.006 41.078 44.408c-12.387 8.786-26.476 14.28-41.078 16.025zm56.223 31.076-48.141-52.043h74.078c-3.754 19.702-12.801 37.816-25.937 52.043zm-66.308 70.493c-69.735 0-127.072-54.101-132.241-122.535h19.52c4.52 28.218 18.203 54.024 38.598 72.721 20.734 19.008 47.059 29.476 74.124 29.476 27.066 0 53.39-10.468 74.125-29.476 20.395-18.697 34.078-44.503 38.597-72.72h19.52c-5.171 68.433-62.508 122.534-132.243 122.534z"/><circle cx="30.174" cy="358.028" r="10"/></g></g></svg>