<svg id="Capa_1" enable-background="new 0 0 509.784 509.784" height="512" viewBox="0 0 509.784 509.784" width="512" xmlns="http://www.w3.org/2000/svg"><g><g><path clip-rule="evenodd" d="m467.579 413.979c20.178-30.495 30.721-65.522 30.334-104.915-1.005-102.395-84.021-186.106-186.404-187.941-.583-.01-1.165-.018-1.747-.023-21.908-.195-41.677-13.298-50.22-33.473-19.531-46.126-65.145-78.522-118.349-78.69-70.667-.223-128.822 57.306-129.329 127.972-.354 49.313 26.982 92.27 67.383 114.254 23.522 12.799 38.39 37.184 38.965 63.956.013.606.029 1.213.048 1.821 3.137 101.48 86.603 183.034 188.129 183.9 36.886.315 67.874-7.784 97.132-25.687" fill="#ffdfe5" fill-rule="evenodd"/><path d="m305.546 163.104c-44.246 1.091-67.941-31.261-69.422-38.231-7.344-34.578-34.62-61.792-69.215-69.055-58.637-12.309-110.317 31.826-110.816 88.181-.437 49.421 33.234 69.118 76.427 90.712 19.858 9.928 25.896 59.627 25.899 75.941.016 81.068 66.309 147.413 147.376 147.49 81.566.077 147.707-66.044 147.662-147.602-.044-81.245-66.691-149.439-147.911-147.436z" fill="#ff7d97"/><circle cx="334.57" cy="338.75" fill="#fff2a0" r="34.616"/></g><g><path d="m335.558 382.188c-24.519 0-44.466-19.947-44.466-44.467 0-24.519 19.947-44.466 44.466-44.466s44.466 19.947 44.466 44.466-19.947 44.467-44.466 44.467zm0-68.933c-13.491 0-24.466 10.976-24.466 24.466 0 13.491 10.975 24.467 24.466 24.467s24.466-10.976 24.466-24.467-10.975-24.466-24.466-24.466z"/><path d="m308.241 509.784c-.72 0-1.438-.003-2.162-.009-51.49-.439-100.25-20.623-137.297-56.833-37.054-36.216-58.336-84.502-59.927-135.963-.02-.639-.037-1.275-.05-1.911-.495-22.987-13.361-44.104-33.579-55.105-44.97-24.471-72.678-71.454-72.31-122.614.544-75.826 62.572-137.349 138.36-137.349.148 0 .293.001.441.001 55.51.175 105.366 33.324 127.013 84.45 6.936 16.381 22.983 27.068 40.883 27.227.614.007 1.216.015 1.819.024 51.931.932 100.789 21.875 137.583 58.975 36.793 37.098 57.336 86.126 57.846 138.055.397 40.488-10.323 77.523-31.862 110.077-3.048 4.605-9.252 5.869-13.858 2.821s-5.869-9.252-2.822-13.857c19.297-29.165 28.9-62.421 28.543-98.846-.942-96.003-79.795-175.507-175.777-177.228-.547-.009-1.104-.017-1.661-.022-25.858-.229-49.065-15.705-59.11-39.427-18.52-43.74-61.171-72.1-108.66-72.249-.123 0-.254-.001-.377-.001-64.839 0-117.896 52.625-118.362 117.491-.314 43.77 23.393 83.966 61.871 104.903 26.501 14.421 43.366 42.105 44.014 72.249.012.576.027 1.148.045 1.721 2.981 96.416 80.906 172.588 177.405 173.411 35.012.295 64.043-7.361 91.407-24.105 4.712-2.883 10.867-1.401 13.75 3.31s1.4 10.867-3.31 13.749c-30.126 18.434-61.912 27.054-99.856 27.055z"/><path d="m305.719 467.263c-.051 0-.103 0-.153 0-40.518-.039-76.837-16.297-105.031-47.018-24.98-27.218-42.789-64.516-51.501-107.862-1.312-6.524-2.263-12.792-3.183-18.853-4.142-27.282-7.134-46.994-37.619-61.656-17.979-8.646-32.968-20.394-43.348-33.97-12.071-15.789-18.104-33.794-17.929-53.513.268-30.288 13.975-58.563 37.607-77.577 23.628-19.011 54.531-26.271 84.783-19.922 30.261 6.354 46.644 26.635 57.536 43.595 1.017 1.583 2.049 3.654 3.479 6.521 8.485 17.014 28.388 56.853 74.891 56.494.411-.003.825-.005 1.236-.005 41.108 0 79.936 16.078 109.461 45.356 30.061 29.811 46.629 69.387 46.652 111.439.023 41.95-16.303 81.386-45.971 111.042-29.634 29.622-69.017 45.929-110.91 45.929zm-157.874-402.613c-18.461 0-36.314 6.135-50.747 17.747-18.943 15.24-29.93 37.9-30.145 62.171-.347 39.214 31.145 60.239 49.947 69.282 40.004 19.24 44.437 48.44 48.724 76.679.885 5.828 1.8 11.855 3.017 17.912 13.479 67.061 56.533 138.744 136.944 138.821h.134c36.556 0 70.914-14.227 96.77-40.072 25.886-25.876 40.131-60.284 40.111-96.886-.021-36.684-14.487-71.221-40.735-97.25-25.749-25.533-59.587-39.558-95.382-39.558-.36 0-.715.002-1.075.005-25.365.192-47.483-8.987-65.678-27.306-14.436-14.533-22.782-31.271-27.267-40.264-.927-1.859-1.978-3.967-2.409-4.637-13.403-20.87-26.388-30.961-44.817-34.829-5.799-1.216-11.626-1.815-17.392-1.815zm157.483 98.852h.01z"/><circle cx="437.892" cy="447.225" r="10"/></g></g></svg>