<svg id="Capa_1" enable-background="new 0 0 512 512" height="512" viewBox="0 0 512 512" width="512" xmlns="http://www.w3.org/2000/svg"><g><g clip-rule="evenodd" fill-rule="evenodd"><path d="m139.472 480.957v-287.231s61.705 35.495 130.756-8.24 102.842 24.086 102.842 24.086v271.386c0 10.095-8.184 18.278-18.278 18.278h-197.042c-10.095 0-18.278-8.184-18.278-18.279z" fill="#9d9ae8"/><path d="m296.485 436.171h-80.969c-19.129 0-34.637-15.507-34.637-34.637v-.734c0-19.129 15.508-34.637 34.637-34.637h80.969c19.129 0 34.637 15.508 34.637 34.637v.734c-.001 19.13-15.508 34.637-34.637 34.637z" fill="#ffa96b"/><path d="m198.538 370.748c-1.829-4.821-2.84-10.116-2.84-15.695v-24.042c0-36.119 25.962-65.396 58.019-65.396h4.568c32.056 0 58.019 29.277 58.019 65.396v24.042c0 5.579-1.011 10.874-2.84 15.695" fill="#ccf5fc"/><path d="m203.884 297.494c-36.718-15.159-19.636-62.193-19.636-62.193s38.15 25.686 72.089 29.981" fill="#fff2a0"/><path d="m312.57 297.494c36.718-15.159 19.636-62.193 19.636-62.193s-38.15 25.686-72.089 29.981" fill="#fff2a0"/><path d="m140.455 181.065s47.161 46.488 113.861 6.064 109.145-10.106 117.903 11.453l-.674-74.111-37.729-76.131v-41.098h-157.653v41.098l-35.034 82.869z" fill="#ccf5fc"/></g><g><path d="m382.723 318.635v-183.247c0-4.079-.842-7.964-2.357-11.494-.025-.057-.042-.114-.068-.171l-34.19-74.513c.007-.15.023-.298.023-.45v-38.654c0-5.581-4.525-10.106-10.106-10.106h-160.05c-5.581 0-10.106 4.525-10.106 10.106v38.655c0 .152.016.3.023.451 0 0-34.631 75.557-34.745 75.897-1.206 3.2-1.87 6.663-1.87 10.279v347.365c0 16.127 13.12 29.247 29.247 29.247h194.952c16.126 0 29.246-13.12 29.246-29.247v-73.153c0-5.582-4.525-10.106-10.106-10.106s-10.106 4.525-10.106 10.106v73.152c0 4.982-4.052 9.035-9.034 9.035h-194.952c-4.982 0-9.035-4.053-9.035-9.035v-277.48c9.69 4.622 22.848 8.153 40.437 8.152h.162c26.124-.032 56.275-7.831 89.616-23.18 46.111-21.224 78.055 12.266 82.807 17.682v110.708c0 5.581 4.525 10.106 10.106 10.106s10.106-4.523 10.106-10.105zm-200.414-256.736h147.383l20.301 44.243h-187.976zm143.61-41.687v21.475h-139.838v-21.475zm23.28 152.583c-17.256-8.841-44.786-16.175-77.947-.91-41.799 19.241-95.263 31.608-121.763 9.671v-46.168c0-1.189.989-4.09.989-4.09 1.496-2.93 4.537-4.945 8.046-4.945h194.952c4.982 0 9.034 4.053 9.034 9.035v45.624c-3.828-2.791-8.279-5.639-13.311-8.217z"/><circle cx="367.812" cy="363.983" r="10"/><circle cx="230.735" cy="403.061" r="10.106"/><circle cx="281.265" cy="403.061" r="10.106"/><path d="m346.26 260.949c.359-15.377-4.355-28.545-4.556-29.098-2.201-6.063-9.769-8.544-15.139-4.936-.362.243-36.621 24.405-67.718 28.341-.211.027-.415.071-.621.111-.206-.039-.41-.084-.621-.111-31.096-3.935-67.356-28.097-67.714-28.338-5.37-3.616-12.94-1.133-15.143 4.933-.201.553-4.915 13.722-4.556 29.098.421 17.985 7.674 32.2 20.661 40.981-3.386 8.956-5.263 18.78-5.263 29.082v24.042c0 3.959.424 7.849 1.245 11.637-9.814 8.281-16.064 20.66-16.064 34.477 0 24.874 20.237 45.11 45.11 45.11h80.234c24.873 0 45.11-20.236 45.11-45.11 0-13.816-6.25-26.195-16.063-34.476.82-3.788 1.245-7.678 1.245-11.637v-24.042c0-9.451-1.589-18.493-4.463-26.839 15.28-8.49 23.858-23.617 24.316-43.225zm-155.847.004c-.112-3.421.127-6.742.522-9.728 7.43 4.243 17.639 9.596 29.038 14.239-7.503 4.763-14.112 11.056-19.481 18.502-6.425-5.097-9.741-12.693-10.079-23.013zm105.704 165.112h-80.234c-13.729 0-24.898-11.169-24.898-24.898s11.169-24.898 24.898-24.898h80.234c13.729 0 24.898 11.169 24.898 24.898s-11.169 24.898-24.898 24.898zm0-70.008h-9.798v-20.37c0-5.581-4.525-10.106-10.106-10.106s-10.106 4.525-10.106 10.106v20.37h-20.886v-20.37c0-5.581-4.525-10.106-10.106-10.106s-10.106 4.525-10.106 10.106v20.37h-9.126c-3.44 0-6.787.4-10.008 1.133-.042-.708-.071-1.419-.071-2.136v-24.042c0-30.487 21.494-55.29 47.913-55.29h4.567c26.419 0 47.913 24.803 47.913 55.29v24.042c0 .717-.029 1.428-.071 2.136-3.222-.733-6.569-1.133-10.009-1.133zm29.937-95.58c-.282 12.072-4.582 20.473-13.094 25.55-5.218-7.771-11.751-14.395-19.23-19.466 12.502-4.879 23.766-10.754 31.789-15.335.376 2.847.611 5.999.535 9.251z"/></g></g></svg>