<svg id="Capa_1" enable-background="new 0 0 512 512" height="512" viewBox="0 0 512 512" width="512" xmlns="http://www.w3.org/2000/svg"><g><g><path d="m445.153 266.151-54.179 207.795c-3.451 13.238-15.241 22.456-28.719 22.456h-210.965c-13.416 0-25.168-9.136-28.676-22.293l-51.483-193.089-3.835-14.869z" fill="#ffea60"/><path d="m295.534 44.246c70.838 16.134 125.247 70.485 135.853 137.857h23.629c13.003 0 24.778 4.755 33.295 12.454 8.517 7.689 13.785 18.313 13.785 30.06 0 23.485-21.074 42.524-47.08 42.524h-398.032c-13.003 0-24.778-4.755-33.295-12.454s-13.785-18.323-13.785-30.07c0-23.485 21.074-42.514 47.08-42.514h15.043c11.062-70.266 69.778-126.378 145.093-139.727" fill="#9d9ae8"/><circle cx="256" cy="57.191" fill="#ff7d97" r="41.594"/></g><g><path d="m168.211 337.72c-1.39-5.289-6.803-8.45-12.095-7.062-5.29 1.39-8.452 6.805-7.062 12.095l29.004 110.394c1.413 5.379 7.158 8.551 12.465 6.949 5.022-1.516 8.024-6.911 6.691-11.982z"/><path d="m321.979 460.208c5.216 1.37 10.724-1.846 12.095-7.062l29.004-110.394c1.39-5.29-1.772-10.705-7.062-12.095-5.286-1.388-10.705 1.772-12.095 7.062l-29.004 110.394c-1.39 5.29 1.772 10.705 7.062 12.095z"/><path d="m256.066 336.24c-5.469 0-9.903 4.434-9.903 9.903v100.42c0 5.391 4.512 9.903 9.903 9.903s9.903-4.512 9.903-9.903v-100.42c0-5.469-4.434-9.903-9.903-9.903z"/><path d="m494.936 186.526c-10.705-9.635-24.882-14.942-39.92-14.942h-15.393c-6.702-31.649-22.687-60.828-46.553-84.834-24.459-24.6-55.57-42.138-90.238-50.935-8.135-17.752-26.061-30.121-46.832-30.121-19.899 0-37.186 11.353-45.757 27.915-74.385 15.082-131.935 69.463-146.453 137.975h-6.807c-31.42 0-56.983 23.431-56.983 52.23 0 14.149 6.06 27.395 17.064 37.3 10.706 9.634 24.883 14.94 39.92 14.94h1.365l54.455 200.997c4.667 17.224 20.39 29.254 38.235 29.254h211.449c18.014 0 33.774-12.172 38.326-29.601l52.422-200.651h1.781c31.421 0 56.984-23.434 56.984-52.24-.001-14.154-6.063-27.398-17.065-37.287zm-238.936-161.025c17.474 0 31.691 14.217 31.691 31.691s-14.217 31.69-31.691 31.69-31.691-14.217-31.691-31.691 14.217-31.69 31.691-31.69zm199.016 230.747h-154.122c-5.469 0-9.903 4.434-9.903 9.903s4.434 9.903 9.903 9.903h131.871l-51.115 195.645c-2.276 8.714-10.156 14.8-19.162 14.8h-211.449c-8.923 0-16.783-6.015-19.117-14.628l-53.052-195.817h132.235c5.469 0 9.903-4.434 9.903-9.903s-4.434-9.903-9.903-9.903h-154.121c-10.136 0-19.607-3.5-26.67-9.856-6.776-6.099-10.507-14.117-10.507-22.577 0-17.878 16.678-32.424 37.177-32.424h15.044c4.872 0 9.02-3.544 9.781-8.357 9.682-61.225 58.21-111.09 122.744-127.795-.024.649-.05 1.298-.05 1.953 0 28.396 23.102 51.497 51.497 51.497 28.218 0 51.198-22.817 51.484-50.969 27.353 8.533 51.873 23.215 71.54 42.996 22.999 23.132 37.723 51.597 42.581 82.318.761 4.812 4.909 8.357 9.781 8.357h23.63c10.136 0 19.607 3.501 26.675 9.862 6.772 6.087 10.502 14.1 10.502 22.562 0 17.883-16.678 32.433-37.177 32.433z"/><circle cx="174.793" cy="170.089" r="10"/><circle cx="290.654" cy="201.246" r="10"/><circle cx="366.093" cy="146.87" r="10"/><circle cx="175.369" cy="110.723" r="10"/><circle cx="115.756" cy="217.59" r="10"/><circle cx="382.809" cy="218.781" r="10"/><circle cx="256" cy="265.656" r="10"/></g></g></svg>