<?xml version="1.0" standalone="no"?>
<!DOCTYPE svg PUBLIC "-//W3C//DTD SVG 20010904//EN"
 "http://www.w3.org/TR/2001/REC-SVG-20010904/DTD/svg10.dtd">
<svg version="1.0" xmlns="http://www.w3.org/2000/svg"
 width="260.000000pt" height="260.000000pt" viewBox="0 0 260.000000 260.000000"
 preserveAspectRatio="xMidYMid meet">
<metadata>
Created by potrace 1.14, written by Peter Selinger 2001-2017
</metadata>
<g transform="translate(0.000000,260.000000) scale(0.100000,-0.100000)"
fill="#000000" stroke="none">
<path d="M41 1778 c-16 -5 -18 -18 -16 -110 2 -56 3 -106 4 -110 1 -5 15 -8
31 -8 59 0 65 -20 66 -218 2 -202 -2 -218 -64 -228 l-37 -6 0 -114 0 -114 275
2 275 3 2 112 1 111 -34 6 c-42 8 -53 28 -51 94 1 50 2 52 28 52 69 0 87 -33
93 -167 4 -102 19 -156 52 -185 75 -66 267 -71 368 -9 57 36 76 89 76 214 l0
107 -35 0 -35 0 0 -89 c0 -63 -4 -92 -14 -100 -15 -13 -45 -5 -47 13 -1 6 -2
29 -4 52 -7 125 -47 181 -140 198 -38 7 -44 16 -11 16 57 0 127 46 153 100 16
32 29 97 27 135 -6 135 -63 206 -189 235 -54 13 -743 20 -774 8z m574 -248
c22 -24 28 -87 13 -123 -13 -33 -43 -47 -97 -47 l-37 0 1 88 c1 48 2 92 3 97
3 18 99 5 117 -15z"/>
<path d="M1136 1780 c-1 -3 -2 -54 -2 -115 l1 -110 38 -6 c21 -3 43 -11 50
-18 8 -8 12 -67 12 -201 0 -207 -2 -215 -60 -226 -16 -3 -32 -8 -35 -10 -3 -3
-5 -55 -5 -115 l-1 -109 201 0 201 0 1 115 1 115 -27 0 c-59 0 -62 8 -59 200
l3 175 27 -80 c14 -44 61 -180 104 -302 l77 -223 119 0 c113 0 119 1 128 23
18 44 190 584 190 598 0 10 2 11 8 2 9 -14 8 -330 -2 -360 -4 -14 -19 -24 -44
-30 l-37 -9 1 -109 0 -110 275 -3 275 -2 0 114 0 114 -37 6 c-62 10 -66 22
-65 232 2 206 1 202 71 214 l30 5 1 113 c0 61 -2 112 -5 113 -3 1 -134 2 -290
2 -275 2 -284 1 -292 -18 -8 -18 -59 -189 -104 -350 l-17 -59 -71 215 -72 214
-293 0 c-162 0 -295 -2 -296 -5z"/>
</g>
</svg>
